<?xml version="1.0" encoding="UTF-8" standalone="no"?>
<!DOCTYPE svg PUBLIC "-//W3C//DTD SVG 1.0//EN" "http://www.w3.org/TR/2001/PR-SVG-20010719/DTD/svg10.dtd">
<svg width="34cm" height="23cm" viewBox="327 -63 678 446" xmlns="http://www.w3.org/2000/svg" xmlns:xlink="http://www.w3.org/1999/xlink">
  <g>
    <rect style="fill: #ffffff" x="686.746" y="73.7062" width="256.4" height="28"/>
    <rect style="fill: none; fill-opacity:0; stroke-width: 2; stroke: #000000" x="686.746" y="73.7062" width="256.4" height="28"/>
    <text font-size="16" style="fill: #000000;text-anchor:middle;font-family:sans-serif;font-style:normal;font-weight:700" x="814.946" y="93.7062">Controller</text>
    <rect style="fill: #ffffff" x="686.746" y="101.706" width="256.4" height="8"/>
    <rect style="fill: none; fill-opacity:0; stroke-width: 2; stroke: #000000" x="686.746" y="101.706" width="256.4" height="8"/>
    <rect style="fill: #ffffff" x="686.746" y="109.706" width="256.4" height="36"/>
    <rect style="fill: none; fill-opacity:0; stroke-width: 2; stroke: #000000" x="686.746" y="109.706" width="256.4" height="36"/>
    <text font-size="12.8" style="fill: #000000;text-anchor:start;font-family:monospace;font-style:normal;font-weight:normal" x="689.746" y="122.906">+loadView(viewName,viewData)</text>
    <text font-size="12.8" style="fill: #000000;text-anchor:start;font-family:monospace;font-style:oblique;font-weight:normal" x="689.746" y="138.906">+loadTemplate(viewName,viewData)</text>
  </g>
  <g>
    <rect style="fill: #ffffff" x="328.039" y="334.401" width="68.8" height="28"/>
    <rect style="fill: none; fill-opacity:0; stroke-width: 2; stroke: #000000" x="328.039" y="334.401" width="68.8" height="28"/>
    <text font-size="16" style="fill: #000000;text-anchor:middle;font-family:sans-serif;font-style:normal;font-weight:700" x="362.439" y="354.401">Model1</text>
    <rect style="fill: #ffffff" x="328.039" y="362.401" width="68.8" height="8"/>
    <rect style="fill: none; fill-opacity:0; stroke-width: 2; stroke: #000000" x="328.039" y="362.401" width="68.8" height="8"/>
    <rect style="fill: #ffffff" x="328.039" y="370.401" width="68.8" height="8"/>
    <rect style="fill: none; fill-opacity:0; stroke-width: 2; stroke: #000000" x="328.039" y="370.401" width="68.8" height="8"/>
  </g>
  <g>
    <rect style="fill: #ffffff" x="675.36" y="336.802" width="59.6" height="28"/>
    <rect style="fill: none; fill-opacity:0; stroke-width: 2; stroke: #000000" x="675.36" y="336.802" width="59.6" height="28"/>
    <text font-size="16" style="fill: #000000;text-anchor:middle;font-family:sans-serif;font-style:normal;font-weight:700" x="705.16" y="356.802">View1</text>
    <rect style="fill: #ffffff" x="675.36" y="364.802" width="59.6" height="8"/>
    <rect style="fill: none; fill-opacity:0; stroke-width: 2; stroke: #000000" x="675.36" y="364.802" width="59.6" height="8"/>
    <rect style="fill: #ffffff" x="675.36" y="372.802" width="59.6" height="8"/>
    <rect style="fill: none; fill-opacity:0; stroke-width: 2; stroke: #000000" x="675.36" y="372.802" width="59.6" height="8"/>
  </g>
  <g>
    <rect style="fill: #ffffff" x="922.404" y="337.893" width="59.6" height="28"/>
    <rect style="fill: none; fill-opacity:0; stroke-width: 2; stroke: #000000" x="922.404" y="337.893" width="59.6" height="28"/>
    <text font-size="16" style="fill: #000000;text-anchor:middle;font-family:sans-serif;font-style:normal;font-weight:700" x="952.204" y="357.893">View2</text>
    <rect style="fill: #ffffff" x="922.404" y="365.893" width="59.6" height="8"/>
    <rect style="fill: none; fill-opacity:0; stroke-width: 2; stroke: #000000" x="922.404" y="365.893" width="59.6" height="8"/>
    <rect style="fill: #ffffff" x="922.404" y="373.893" width="59.6" height="8"/>
    <rect style="fill: none; fill-opacity:0; stroke-width: 2; stroke: #000000" x="922.404" y="373.893" width="59.6" height="8"/>
  </g>
  <g>
    <rect style="fill: #ffffff" x="654.614" y="225.248" width="100.7" height="28"/>
    <rect style="fill: none; fill-opacity:0; stroke-width: 2; stroke: #000000" x="654.614" y="225.248" width="100.7" height="28"/>
    <text font-size="16" style="fill: #000000;text-anchor:middle;font-family:sans-serif;font-style:normal;font-weight:700" x="704.964" y="245.248">Controller1</text>
    <rect style="fill: #ffffff" x="654.614" y="253.248" width="100.7" height="8"/>
    <rect style="fill: none; fill-opacity:0; stroke-width: 2; stroke: #000000" x="654.614" y="253.248" width="100.7" height="8"/>
    <rect style="fill: #ffffff" x="654.614" y="261.248" width="100.7" height="8"/>
    <rect style="fill: none; fill-opacity:0; stroke-width: 2; stroke: #000000" x="654.614" y="261.248" width="100.7" height="8"/>
  </g>
  <g>
    <rect style="fill: #ffffff" x="902.517" y="225.339" width="100.7" height="28"/>
    <rect style="fill: none; fill-opacity:0; stroke-width: 2; stroke: #000000" x="902.517" y="225.339" width="100.7" height="28"/>
    <text font-size="16" style="fill: #000000;text-anchor:middle;font-family:sans-serif;font-style:normal;font-weight:700" x="952.867" y="245.339">Controller2</text>
    <rect style="fill: #ffffff" x="902.517" y="253.339" width="100.7" height="8"/>
    <rect style="fill: none; fill-opacity:0; stroke-width: 2; stroke: #000000" x="902.517" y="253.339" width="100.7" height="8"/>
    <rect style="fill: #ffffff" x="902.517" y="261.339" width="100.7" height="8"/>
    <rect style="fill: none; fill-opacity:0; stroke-width: 2; stroke: #000000" x="902.517" y="261.339" width="100.7" height="8"/>
  </g>
  <g>
    <polyline style="fill: none; fill-opacity:0; stroke-width: 2; stroke: #000000" points="814.946,163.942 814.946,193.477 704.964,193.477 704.964,225.248 "/>
    <polygon style="fill: #ffffff" points="822.946,163.942 814.946,147.942 806.946,163.942 "/>
    <polygon style="fill: none; fill-opacity:0; stroke-width: 2; stroke: #000000" points="822.946,163.942 814.946,147.942 806.946,163.942 "/>
  </g>
  <g>
    <polyline style="fill: none; fill-opacity:0; stroke-width: 2; stroke: #000000" points="814.946,163.942 814.946,193.522 952.867,193.522 952.867,225.339 "/>
    <polygon style="fill: #ffffff" points="822.946,163.942 814.946,147.942 806.946,163.942 "/>
    <polygon style="fill: none; fill-opacity:0; stroke-width: 2; stroke: #000000" points="822.946,163.942 814.946,147.942 806.946,163.942 "/>
  </g>
  <g>
    <rect style="fill: #ffffff" x="786.648" y="-61.23" width="56.2" height="28"/>
    <rect style="fill: none; fill-opacity:0; stroke-width: 2; stroke: #000000" x="786.648" y="-61.23" width="56.2" height="28"/>
    <text font-size="16" style="fill: #000000;text-anchor:middle;font-family:sans-serif;font-style:normal;font-weight:700" x="814.748" y="-41.23">Core</text>
    <rect style="fill: #ffffff" x="786.648" y="-33.23" width="56.2" height="8"/>
    <rect style="fill: none; fill-opacity:0; stroke-width: 2; stroke: #000000" x="786.648" y="-33.23" width="56.2" height="8"/>
    <rect style="fill: #ffffff" x="786.648" y="-25.23" width="56.2" height="20"/>
    <rect style="fill: none; fill-opacity:0; stroke-width: 2; stroke: #000000" x="786.648" y="-25.23" width="56.2" height="20"/>
    <text font-size="12.8" style="fill: #000000;text-anchor:start;font-family:monospace;font-style:normal;font-weight:normal" x="789.648" y="-12.03">+run()</text>
  </g>
  <g>
    <polyline style="fill: none; fill-opacity:0; stroke-width: 2; stroke-dasharray: 8; stroke: #000000" points="814.946,72.6972 814.946,37.7336 814.748,37.7336 814.748,1.47527 "/>
    <polyline style="fill: none; fill-opacity:0; stroke-width: 2; stroke: #000000" points="819.748,14.1227 814.748,-1.87734 809.748,14.1227 "/>
  </g>
  <g>
    <polyline style="fill: none; fill-opacity:0; stroke-width: 2; stroke-dasharray: 8; stroke: #000000" points="704.964,269.248 704.964,299.025 705.16,299.025 705.16,330.097 "/>
    <polyline style="fill: none; fill-opacity:0; stroke-width: 2; stroke: #000000" points="700.16,317.45 705.16,333.45 710.16,317.45 "/>
  </g>
  <g>
    <polyline style="fill: none; fill-opacity:0; stroke-width: 2; stroke-dasharray: 8; stroke: #000000" points="952.867,269.339 952.867,299.616 952.204,299.616 952.204,331.188 "/>
    <polyline style="fill: none; fill-opacity:0; stroke-width: 2; stroke: #000000" points="947.204,318.54 952.204,334.54 957.204,318.54 "/>
  </g>
  <g>
    <rect style="fill: #ffffff" x="467.047" y="335.626" width="68.8" height="28"/>
    <rect style="fill: none; fill-opacity:0; stroke-width: 2; stroke: #000000" x="467.047" y="335.626" width="68.8" height="28"/>
    <text font-size="16" style="fill: #000000;text-anchor:middle;font-family:sans-serif;font-style:normal;font-weight:700" x="501.447" y="355.626">Model2</text>
    <rect style="fill: #ffffff" x="467.047" y="363.626" width="68.8" height="8"/>
    <rect style="fill: none; fill-opacity:0; stroke-width: 2; stroke: #000000" x="467.047" y="363.626" width="68.8" height="8"/>
    <rect style="fill: #ffffff" x="467.047" y="371.626" width="68.8" height="8"/>
    <rect style="fill: none; fill-opacity:0; stroke-width: 2; stroke: #000000" x="467.047" y="371.626" width="68.8" height="8"/>
  </g>
  <g>
    <rect style="fill: #ffffff" x="399.752" y="220.702" width="58.6" height="28"/>
    <rect style="fill: none; fill-opacity:0; stroke-width: 2; stroke: #000000" x="399.752" y="220.702" width="58.6" height="28"/>
    <text font-size="16" style="fill: #000000;text-anchor:middle;font-family:sans-serif;font-style:normal;font-weight:700" x="429.052" y="240.702">Model</text>
    <rect style="fill: #ffffff" x="399.752" y="248.702" width="58.6" height="20"/>
    <rect style="fill: none; fill-opacity:0; stroke-width: 2; stroke: #000000" x="399.752" y="248.702" width="58.6" height="20"/>
    <text font-size="12.8" style="fill: #000000;text-anchor:start;font-family:monospace;font-style:normal;font-weight:normal" x="402.752" y="261.902">#db</text>
    <rect style="fill: #ffffff" x="399.752" y="268.702" width="58.6" height="8"/>
    <rect style="fill: none; fill-opacity:0; stroke-width: 2; stroke: #000000" x="399.752" y="268.702" width="58.6" height="8"/>
  </g>
  <g>
    <polyline style="fill: none; fill-opacity:0; stroke-width: 2; stroke: #000000" points="429.052,294.939 429.052,314.164 501.447,314.164 501.447,335.626 "/>
    <polygon style="fill: #ffffff" points="437.052,294.939 429.052,278.939 421.052,294.939 "/>
    <polygon style="fill: none; fill-opacity:0; stroke-width: 2; stroke: #000000" points="437.052,294.939 429.052,278.939 421.052,294.939 "/>
  </g>
  <g>
    <polyline style="fill: none; fill-opacity:0; stroke-width: 2; stroke: #000000" points="429.052,294.939 429.052,313.552 362.439,313.552 362.439,334.401 "/>
    <polygon style="fill: #ffffff" points="437.052,294.939 429.052,278.939 421.052,294.939 "/>
    <polygon style="fill: none; fill-opacity:0; stroke-width: 2; stroke: #000000" points="437.052,294.939 429.052,278.939 421.052,294.939 "/>
  </g>
  <g>
    <polyline style="fill: none; fill-opacity:0; stroke-width: 2; stroke-dasharray: 8; stroke: #000000" points="686.746,87.7062 429.052,87.7062 429.052,213.997 "/>
    <polyline style="fill: none; fill-opacity:0; stroke-width: 2; stroke: #000000" points="424.052,201.35 429.052,217.35 434.052,201.35 "/>
  </g>
</svg>
